<?xml version="1.0" encoding="utf-8"?>
<!-- Generator: Adobe Illustrator 16.0.0, SVG Export Plug-In . SVG Version: 6.00 Build 0)  -->
<!DOCTYPE svg PUBLIC "-//W3C//DTD SVG 1.1//EN" "http://www.w3.org/Graphics/SVG/1.1/DTD/svg11.dtd">
<svg version="1.1" id="Layer_1" xmlns="http://www.w3.org/2000/svg" xmlns:xlink="http://www.w3.org/1999/xlink" x="0px" y="0px"
	 width="20px" height="20px" viewBox="0 0 20 20" enable-background="new 0 0 20 20" xml:space="preserve">
<path fill-rule="evenodd" clip-rule="evenodd" d="M11,13.5v-4c0-2.419-1.718-4.436-4-4.899V3.5c0-0.553-0.447-1-1-1s-1,0.447-1,1
	v1.101C2.718,5.064,1,7.081,1,9.5v4c-0.553,0-1,0.447-1,1s0.447,1,1,1h3c0,1.104,0.896,2,2,2s2-0.896,2-2h3c0.553,0,1-0.447,1-1
	S11.553,13.5,11,13.5z"/>
</svg>
