<?xml version="1.0" encoding="utf-8"?>
<!-- Generator: Adobe Illustrator 16.0.0, SVG Export Plug-In . SVG Version: 6.00 Build 0)  -->
<!DOCTYPE svg PUBLIC "-//W3C//DTD SVG 1.1//EN" "http://www.w3.org/Graphics/SVG/1.1/DTD/svg11.dtd">
<svg version="1.1" id="Layer_1" xmlns="http://www.w3.org/2000/svg" xmlns:xlink="http://www.w3.org/1999/xlink" x="0px" y="0px"
	 width="60px" height="60px" viewBox="0 0 60 60" enable-background="new 0 0 60 60" xml:space="preserve">
<g>
	<path fill-rule="evenodd" clip-rule="evenodd" d="M21,23h18c0.553,0,1-0.448,1-1s-0.447-1-1-1H21c-0.552,0-1,0.448-1,1
		S20.448,23,21,23z"/>
	<path fill-rule="evenodd" clip-rule="evenodd" d="M39,29H21c-0.552,0-1,0.448-1,1s0.448,1,1,1h18c0.553,0,1-0.448,1-1
		S39.553,29,39,29z"/>
	<path fill-rule="evenodd" clip-rule="evenodd" d="M39,37H21c-0.552,0-1,0.447-1,1s0.448,1,1,1h18c0.553,0,1-0.447,1-1
		S39.553,37,39,37z"/>
</g>
</svg>
