<?xml version="1.0" encoding="utf-8"?>
<!-- Generator: Adobe Illustrator 16.0.0, SVG Export Plug-In . SVG Version: 6.00 Build 0)  -->
<!DOCTYPE svg PUBLIC "-//W3C//DTD SVG 1.1//EN" "http://www.w3.org/Graphics/SVG/1.1/DTD/svg11.dtd">
<svg version="1.1" id="Layer_1" xmlns="http://www.w3.org/2000/svg" xmlns:xlink="http://www.w3.org/1999/xlink" x="0px" y="0px"
	 width="20px" height="20px" viewBox="0 0 20 20" enable-background="new 0 0 20 20" xml:space="preserve">
<path d="M7,6.834l0.673,1.325l0.466,0.915L9.18,9.22l1.509,0.214l-1.091,1.032L8.844,11.18l0.18,1.006l0.258,1.455l-1.35-0.688
	L7,12.479l-0.932,0.476l-1.348,0.687l0.258-1.457l0.178-1.004l-0.753-0.713L3.311,9.435l1.51-0.214l1.04-0.146L6.326,8.16L7,6.834
	 M7,3.5c-0.328,0-0.626,0.181-0.771,0.466L4.533,7.301L0.736,7.837C0.413,7.883,0.144,8.103,0.042,8.405
	C-0.06,8.707,0.025,9.038,0.261,9.26l2.747,2.596l-0.648,3.67c-0.057,0.313,0.076,0.629,0.341,0.814
	c0.149,0.105,0.328,0.16,0.505,0.16c0.137,0,0.274-0.031,0.4-0.098L7,14.67l3.395,1.732c0.125,0.065,0.265,0.098,0.4,0.098
	c0.178,0,0.355-0.055,0.506-0.16c0.266-0.186,0.396-0.502,0.342-0.814l-0.648-3.67L13.74,9.26c0.234-0.222,0.318-0.553,0.219-0.855
	c-0.104-0.302-0.371-0.522-0.693-0.568L9.468,7.301L7.774,3.965C7.626,3.68,7.328,3.5,7,3.5L7,3.5z"/>
</svg>
