<?xml version="1.0" encoding="utf-8"?>
<!-- Generator: Adobe Illustrator 16.0.0, SVG Export Plug-In . SVG Version: 6.00 Build 0)  -->
<!DOCTYPE svg PUBLIC "-//W3C//DTD SVG 1.1//EN" "http://www.w3.org/Graphics/SVG/1.1/DTD/svg11.dtd">
<svg version="1.1" id="Layer_1" xmlns="http://www.w3.org/2000/svg" xmlns:xlink="http://www.w3.org/1999/xlink" x="0px" y="0px"
	 width="20px" height="20px" viewBox="0 0 20 20" enable-background="new 0 0 20 20" xml:space="preserve">
<path d="M13.959,8.405c-0.104-0.302-0.371-0.522-0.693-0.568L9.468,7.301L7.771,3.965C7.627,3.681,7.328,3.5,7,3.5
	c-0.327,0-0.625,0.181-0.771,0.466L4.533,7.302L0.736,7.837C0.412,7.883,0.143,8.104,0.043,8.405
	C-0.059,8.707,0.025,9.039,0.26,9.26l2.747,2.596l-0.648,3.67c-0.056,0.313,0.077,0.629,0.342,0.814
	c0.149,0.105,0.326,0.16,0.504,0.16c0.137,0,0.275-0.031,0.4-0.098L7,14.671l3.396,1.731c0.125,0.065,0.264,0.098,0.399,0.098
	c0.179,0,0.354-0.055,0.507-0.159c0.264-0.187,0.395-0.503,0.342-0.815l-0.649-3.668L13.74,9.26
	C13.977,9.039,14.061,8.707,13.959,8.405z"/>
</svg>
