<?xml version="1.0" encoding="utf-8"?>
<!-- Generator: Adobe Illustrator 16.0.0, SVG Export Plug-In . SVG Version: 6.00 Build 0)  -->
<!DOCTYPE svg PUBLIC "-//W3C//DTD SVG 1.1//EN" "http://www.w3.org/Graphics/SVG/1.1/DTD/svg11.dtd">
<svg version="1.1" id="Layer_1" xmlns="http://www.w3.org/2000/svg" xmlns:xlink="http://www.w3.org/1999/xlink" x="0px" y="0px"
	 width="20px" height="20px" viewBox="0 0 20 20" enable-background="new 0 0 20 20" xml:space="preserve">
<path fill-rule="evenodd" clip-rule="evenodd" d="M1,5h3c0.552,0,1,0.448,1,1v3c0,0.552-0.448,1-1,1H1c-0.552,0-1-0.448-1-1V6
	C0,5.448,0.448,5,1,5z"/>
<path fill-rule="evenodd" clip-rule="evenodd" d="M7,5h3c0.553,0,1,0.448,1,1v3c0,0.552-0.447,1-1,1H7c-0.552,0-1-0.448-1-1V6
	C6,5.448,6.448,5,7,5z"/>
<path fill-rule="evenodd" clip-rule="evenodd" d="M1,11h3c0.552,0,1,0.447,1,1v3c0,0.553-0.448,1-1,1H1c-0.552,0-1-0.447-1-1v-3
	C0,11.447,0.448,11,1,11z"/>
<path fill-rule="evenodd" clip-rule="evenodd" d="M7,11h3c0.553,0,1,0.447,1,1v3c0,0.553-0.447,1-1,1H7c-0.552,0-1-0.447-1-1v-3
	C6,11.447,6.448,11,7,11z"/>
</svg>
